<mxfile host="app.diagrams.net" modified="2023-03-09T14:28:18.561Z" agent="5.0 (Windows NT 10.0; Win64; x64) AppleWebKit/537.36 (KHTML, like Gecko) Chrome/110.0.0.0 Safari/537.36" etag="GHESC4C5Adez39_L60AE" version="21.0.2" type="github" pages="3">
  <diagram id="pBzNos0Q74Z3izpr5-M8" name="Projekti">
    <mxGraphModel dx="1434" dy="796" grid="1" gridSize="10" guides="1" tooltips="1" connect="1" arrows="1" fold="1" page="1" pageScale="1" pageWidth="827" pageHeight="1169" math="0" shadow="0">
      <root>
        <mxCell id="0" />
        <mxCell id="1" parent="0" />
        <mxCell id="8k0k6PJcJcKbX0zr3Bi8-10" value="" style="rounded=0;whiteSpace=wrap;html=1;shadow=0;" parent="1" vertex="1">
          <mxGeometry x="100" y="360" width="700" height="160" as="geometry" />
        </mxCell>
        <mxCell id="8k0k6PJcJcKbX0zr3Bi8-6" value="" style="rounded=0;whiteSpace=wrap;html=1;shadow=0;" parent="1" vertex="1">
          <mxGeometry x="100" y="190" width="700" height="170" as="geometry" />
        </mxCell>
        <mxCell id="Nygt5uLxB3b8vqxISnZd-7" value="Skannattut paperilaskut tallennetaan &quot;Open&quot; hakemistoon." style="rounded=1;whiteSpace=wrap;html=1;absoluteArcSize=1;arcSize=14;strokeWidth=2;" parent="1" vertex="1">
          <mxGeometry x="240" y="225" width="100" height="100" as="geometry" />
        </mxCell>
        <mxCell id="Nygt5uLxB3b8vqxISnZd-10" value="UI Path poimii PDF tiedostoista oleelliset tiedot CSV muotoon." style="rounded=1;whiteSpace=wrap;html=1;absoluteArcSize=1;arcSize=14;strokeWidth=2;" parent="1" vertex="1">
          <mxGeometry x="364" y="390" width="100" height="100" as="geometry" />
        </mxCell>
        <mxCell id="Nygt5uLxB3b8vqxISnZd-11" value="CSV tietojen prosessointi. &quot;Open&quot; hakemistossa" style="rounded=1;whiteSpace=wrap;html=1;absoluteArcSize=1;arcSize=14;strokeWidth=2;" parent="1" vertex="1">
          <mxGeometry x="630" y="205" width="100" height="100" as="geometry" />
        </mxCell>
        <mxCell id="8k0k6PJcJcKbX0zr3Bi8-1" value="Minioppariprojekti" style="rounded=0;whiteSpace=wrap;html=1;" parent="1" vertex="1">
          <mxGeometry x="40" y="160" width="760" height="30" as="geometry" />
        </mxCell>
        <mxCell id="8k0k6PJcJcKbX0zr3Bi8-2" value="Tiedostot" style="rounded=0;whiteSpace=wrap;html=1;direction=north;" parent="1" vertex="1">
          <mxGeometry x="40" y="190" width="60" height="170" as="geometry" />
        </mxCell>
        <mxCell id="8k0k6PJcJcKbX0zr3Bi8-3" value="UiPath" style="rounded=0;whiteSpace=wrap;html=1;direction=south;" parent="1" vertex="1">
          <mxGeometry x="40" y="360" width="60" height="160" as="geometry" />
        </mxCell>
        <mxCell id="8k0k6PJcJcKbX0zr3Bi8-4" value="Robot Framework" style="rounded=0;whiteSpace=wrap;html=1;direction=south;" parent="1" vertex="1">
          <mxGeometry x="40" y="520" width="60" height="200" as="geometry" />
        </mxCell>
        <mxCell id="8k0k6PJcJcKbX0zr3Bi8-5" value="Tietokanta" style="rounded=0;whiteSpace=wrap;html=1;direction=south;" parent="1" vertex="1">
          <mxGeometry x="40" y="720" width="60" height="160" as="geometry" />
        </mxCell>
        <mxCell id="8k0k6PJcJcKbX0zr3Bi8-9" value="" style="edgeStyle=orthogonalEdgeStyle;rounded=0;orthogonalLoop=1;jettySize=auto;html=1;" parent="1" source="8k0k6PJcJcKbX0zr3Bi8-7" target="Nygt5uLxB3b8vqxISnZd-7" edge="1">
          <mxGeometry relative="1" as="geometry" />
        </mxCell>
        <mxCell id="8k0k6PJcJcKbX0zr3Bi8-7" value="Laskut" style="shape=parallelogram;html=1;strokeWidth=2;perimeter=parallelogramPerimeter;whiteSpace=wrap;rounded=1;arcSize=12;size=0.23;shadow=0;" parent="1" vertex="1">
          <mxGeometry x="120" y="245" width="100" height="60" as="geometry" />
        </mxCell>
        <mxCell id="8k0k6PJcJcKbX0zr3Bi8-11" value="" style="rounded=0;whiteSpace=wrap;html=1;shadow=0;" parent="1" vertex="1">
          <mxGeometry x="100" y="520" width="700" height="200" as="geometry" />
        </mxCell>
        <mxCell id="8k0k6PJcJcKbX0zr3Bi8-12" value="" style="rounded=0;whiteSpace=wrap;html=1;shadow=0;" parent="1" vertex="1">
          <mxGeometry x="100" y="720" width="700" height="160" as="geometry" />
        </mxCell>
        <mxCell id="Nygt5uLxB3b8vqxISnZd-9" value="Luodaan MySQL tietokanta ostolaskuille.&lt;br&gt;Status tiedot myös." style="rounded=1;whiteSpace=wrap;html=1;absoluteArcSize=1;arcSize=14;strokeWidth=2;" parent="1" vertex="1">
          <mxGeometry x="490" y="750" width="100" height="100" as="geometry" />
        </mxCell>
        <mxCell id="8k0k6PJcJcKbX0zr3Bi8-14" value="Laskujen&lt;br&gt;käsittely" style="rounded=1;whiteSpace=wrap;html=1;absoluteArcSize=1;arcSize=14;strokeWidth=2;shadow=0;" parent="1" vertex="1">
          <mxGeometry x="240" y="390" width="100" height="100" as="geometry" />
        </mxCell>
        <mxCell id="8k0k6PJcJcKbX0zr3Bi8-15" value="" style="endArrow=classic;html=1;rounded=0;exitX=0.5;exitY=1;exitDx=0;exitDy=0;entryX=0.5;entryY=0;entryDx=0;entryDy=0;" parent="1" source="Nygt5uLxB3b8vqxISnZd-7" target="8k0k6PJcJcKbX0zr3Bi8-14" edge="1">
          <mxGeometry width="50" height="50" relative="1" as="geometry">
            <mxPoint x="390" y="460" as="sourcePoint" />
            <mxPoint x="440" y="410" as="targetPoint" />
          </mxGeometry>
        </mxCell>
        <mxCell id="8k0k6PJcJcKbX0zr3Bi8-16" value="" style="endArrow=classic;html=1;rounded=0;exitX=1;exitY=0.5;exitDx=0;exitDy=0;entryX=0;entryY=0.5;entryDx=0;entryDy=0;" parent="1" source="8k0k6PJcJcKbX0zr3Bi8-14" target="Nygt5uLxB3b8vqxISnZd-10" edge="1">
          <mxGeometry width="50" height="50" relative="1" as="geometry">
            <mxPoint x="390" y="460" as="sourcePoint" />
            <mxPoint x="440" y="410" as="targetPoint" />
          </mxGeometry>
        </mxCell>
        <mxCell id="8k0k6PJcJcKbX0zr3Bi8-17" value="Laskut &quot;Käsiteltyjen&quot; hakemistossa" style="rounded=1;whiteSpace=wrap;html=1;absoluteArcSize=1;arcSize=14;strokeWidth=2;shadow=0;" parent="1" vertex="1">
          <mxGeometry x="450" y="245" width="100" height="100" as="geometry" />
        </mxCell>
        <mxCell id="8k0k6PJcJcKbX0zr3Bi8-23" value="" style="endArrow=classic;html=1;rounded=0;entryX=0;entryY=0.25;entryDx=0;entryDy=0;exitX=0.372;exitY=0.014;exitDx=0;exitDy=0;exitPerimeter=0;" parent="1" source="Nygt5uLxB3b8vqxISnZd-10" target="Nygt5uLxB3b8vqxISnZd-11" edge="1">
          <mxGeometry width="50" height="50" relative="1" as="geometry">
            <mxPoint x="389" y="270" as="sourcePoint" />
            <mxPoint x="439" y="220" as="targetPoint" />
            <Array as="points">
              <mxPoint x="400" y="230" />
            </Array>
          </mxGeometry>
        </mxCell>
        <mxCell id="8k0k6PJcJcKbX0zr3Bi8-24" value="Tallennetaan laskut &quot;Finished&quot; hakemistoon" style="rounded=1;whiteSpace=wrap;html=1;absoluteArcSize=1;arcSize=14;strokeWidth=2;shadow=0;" parent="1" vertex="1">
          <mxGeometry x="490" y="390" width="100" height="100" as="geometry" />
        </mxCell>
        <mxCell id="8k0k6PJcJcKbX0zr3Bi8-25" value="" style="endArrow=classic;html=1;rounded=0;exitX=1;exitY=0.5;exitDx=0;exitDy=0;" parent="1" source="Nygt5uLxB3b8vqxISnZd-10" edge="1">
          <mxGeometry width="50" height="50" relative="1" as="geometry">
            <mxPoint x="390" y="270" as="sourcePoint" />
            <mxPoint x="490" y="440" as="targetPoint" />
            <Array as="points" />
          </mxGeometry>
        </mxCell>
        <mxCell id="8k0k6PJcJcKbX0zr3Bi8-26" value="" style="endArrow=classic;html=1;rounded=0;entryX=0.75;entryY=1;entryDx=0;entryDy=0;" parent="1" target="8k0k6PJcJcKbX0zr3Bi8-17" edge="1">
          <mxGeometry width="50" height="50" relative="1" as="geometry">
            <mxPoint x="525" y="390" as="sourcePoint" />
            <mxPoint x="440" y="220" as="targetPoint" />
          </mxGeometry>
        </mxCell>
        <mxCell id="8k0k6PJcJcKbX0zr3Bi8-27" value="Lukea laskun data muuttujiin" style="rounded=1;whiteSpace=wrap;html=1;absoluteArcSize=1;arcSize=14;strokeWidth=2;shadow=0;" parent="1" vertex="1">
          <mxGeometry x="240" y="570" width="100" height="100" as="geometry" />
        </mxCell>
        <mxCell id="8k0k6PJcJcKbX0zr3Bi8-29" value="" style="endArrow=classic;html=1;rounded=0;entryX=0.4;entryY=-0.002;entryDx=0;entryDy=0;entryPerimeter=0;exitX=0.6;exitY=0.95;exitDx=0;exitDy=0;exitPerimeter=0;" parent="1" source="Nygt5uLxB3b8vqxISnZd-11" target="8k0k6PJcJcKbX0zr3Bi8-27" edge="1">
          <mxGeometry width="50" height="50" relative="1" as="geometry">
            <mxPoint x="690" y="310" as="sourcePoint" />
            <mxPoint x="440" y="510" as="targetPoint" />
            <Array as="points">
              <mxPoint x="690" y="540" />
              <mxPoint x="280" y="540" />
            </Array>
          </mxGeometry>
        </mxCell>
        <mxCell id="Nygt5uLxB3b8vqxISnZd-8" value="Laskuista tarkistetaan IBAN numero, viitenumero, summat ja kokonaissumma." style="rounded=1;whiteSpace=wrap;html=1;absoluteArcSize=1;arcSize=14;strokeWidth=2;" parent="1" vertex="1">
          <mxGeometry x="364" y="570" width="100" height="100" as="geometry" />
        </mxCell>
        <mxCell id="8k0k6PJcJcKbX0zr3Bi8-32" value="" style="endArrow=classic;html=1;rounded=0;exitX=1;exitY=0.5;exitDx=0;exitDy=0;" parent="1" source="8k0k6PJcJcKbX0zr3Bi8-27" target="Nygt5uLxB3b8vqxISnZd-8" edge="1">
          <mxGeometry width="50" height="50" relative="1" as="geometry">
            <mxPoint x="390" y="580" as="sourcePoint" />
            <mxPoint x="440" y="530" as="targetPoint" />
          </mxGeometry>
        </mxCell>
        <mxCell id="8k0k6PJcJcKbX0zr3Bi8-33" value="Lisää laskut tietokantaan" style="rounded=1;whiteSpace=wrap;html=1;absoluteArcSize=1;arcSize=14;strokeWidth=2;shadow=0;" parent="1" vertex="1">
          <mxGeometry x="490" y="570" width="100" height="100" as="geometry" />
        </mxCell>
        <mxCell id="8k0k6PJcJcKbX0zr3Bi8-34" value="" style="endArrow=classic;html=1;rounded=0;entryX=0;entryY=0.5;entryDx=0;entryDy=0;" parent="1" source="Nygt5uLxB3b8vqxISnZd-8" target="8k0k6PJcJcKbX0zr3Bi8-33" edge="1">
          <mxGeometry width="50" height="50" relative="1" as="geometry">
            <mxPoint x="390" y="770" as="sourcePoint" />
            <mxPoint x="440" y="720" as="targetPoint" />
          </mxGeometry>
        </mxCell>
        <mxCell id="8k0k6PJcJcKbX0zr3Bi8-35" value="" style="endArrow=classic;html=1;rounded=0;entryX=0.5;entryY=0;entryDx=0;entryDy=0;exitX=0.629;exitY=0.75;exitDx=0;exitDy=0;exitPerimeter=0;" parent="1" source="8k0k6PJcJcKbX0zr3Bi8-11" target="Nygt5uLxB3b8vqxISnZd-9" edge="1">
          <mxGeometry width="50" height="50" relative="1" as="geometry">
            <mxPoint x="390" y="770" as="sourcePoint" />
            <mxPoint x="440" y="720" as="targetPoint" />
          </mxGeometry>
        </mxCell>
      </root>
    </mxGraphModel>
  </diagram>
  <diagram id="9NsjQAqZ63PPH62hromS" name="UiPath">
    <mxGraphModel dx="1434" dy="796" grid="1" gridSize="10" guides="1" tooltips="1" connect="1" arrows="1" fold="1" page="1" pageScale="1" pageWidth="827" pageHeight="1169" math="0" shadow="0">
      <root>
        <mxCell id="0" />
        <mxCell id="1" parent="0" />
        <mxCell id="8kugYTs8ZW--hJLzOBkt-1" value="UiPath Prosessi" style="text;html=1;strokeColor=none;fillColor=none;align=center;verticalAlign=middle;whiteSpace=wrap;rounded=0;" parent="1" vertex="1">
          <mxGeometry x="20" y="20" width="120" height="30" as="geometry" />
        </mxCell>
        <mxCell id="2AOorNoscCHdVGtUdLYh-2" style="edgeStyle=orthogonalEdgeStyle;rounded=0;orthogonalLoop=1;jettySize=auto;html=1;entryX=0;entryY=0.5;entryDx=0;entryDy=0;" edge="1" parent="1" source="8kugYTs8ZW--hJLzOBkt-2" target="8kugYTs8ZW--hJLzOBkt-3">
          <mxGeometry relative="1" as="geometry" />
        </mxCell>
        <mxCell id="8kugYTs8ZW--hJLzOBkt-2" value="" style="ellipse;whiteSpace=wrap;html=1;aspect=fixed;" parent="1" vertex="1">
          <mxGeometry x="20" y="80" width="80" height="80" as="geometry" />
        </mxCell>
        <mxCell id="8kugYTs8ZW--hJLzOBkt-15" style="edgeStyle=orthogonalEdgeStyle;rounded=0;orthogonalLoop=1;jettySize=auto;html=1;" parent="1" source="8kugYTs8ZW--hJLzOBkt-3" target="8kugYTs8ZW--hJLzOBkt-4" edge="1">
          <mxGeometry relative="1" as="geometry" />
        </mxCell>
        <mxCell id="8kugYTs8ZW--hJLzOBkt-42" style="edgeStyle=orthogonalEdgeStyle;orthogonalLoop=1;jettySize=auto;html=1;exitX=1;exitY=0.5;exitDx=0;exitDy=0;entryX=0;entryY=0.5;entryDx=0;entryDy=0;entryPerimeter=0;curved=1;strokeColor=default;endArrow=none;endFill=0;" parent="1" source="8kugYTs8ZW--hJLzOBkt-3" target="8kugYTs8ZW--hJLzOBkt-41" edge="1">
          <mxGeometry relative="1" as="geometry" />
        </mxCell>
        <mxCell id="8kugYTs8ZW--hJLzOBkt-3" value="Luodaan datatablet kohdedatalle" style="rounded=1;whiteSpace=wrap;html=1;" parent="1" vertex="1">
          <mxGeometry x="140" y="80" width="140" height="80" as="geometry" />
        </mxCell>
        <mxCell id="8kugYTs8ZW--hJLzOBkt-16" style="edgeStyle=orthogonalEdgeStyle;rounded=0;orthogonalLoop=1;jettySize=auto;html=1;exitX=0.5;exitY=1;exitDx=0;exitDy=0;entryX=0.5;entryY=0;entryDx=0;entryDy=0;" parent="1" source="8kugYTs8ZW--hJLzOBkt-4" target="8kugYTs8ZW--hJLzOBkt-5" edge="1">
          <mxGeometry relative="1" as="geometry" />
        </mxCell>
        <mxCell id="8kugYTs8ZW--hJLzOBkt-4" value="Luetaan PDF tiedostot alkuhakemistosta" style="rounded=1;whiteSpace=wrap;html=1;" parent="1" vertex="1">
          <mxGeometry x="140" y="180" width="140" height="80" as="geometry" />
        </mxCell>
        <mxCell id="8kugYTs8ZW--hJLzOBkt-17" style="edgeStyle=orthogonalEdgeStyle;rounded=0;orthogonalLoop=1;jettySize=auto;html=1;exitX=0.5;exitY=1;exitDx=0;exitDy=0;entryX=0.5;entryY=0;entryDx=0;entryDy=0;" parent="1" source="8kugYTs8ZW--hJLzOBkt-5" target="8kugYTs8ZW--hJLzOBkt-6" edge="1">
          <mxGeometry relative="1" as="geometry" />
        </mxCell>
        <mxCell id="2AOorNoscCHdVGtUdLYh-12" style="edgeStyle=orthogonalEdgeStyle;orthogonalLoop=1;jettySize=auto;html=1;exitX=1;exitY=0.5;exitDx=0;exitDy=0;entryX=0;entryY=0.5;entryDx=0;entryDy=0;entryPerimeter=0;endArrow=none;endFill=0;curved=1;" edge="1" parent="1" source="8kugYTs8ZW--hJLzOBkt-5" target="2AOorNoscCHdVGtUdLYh-6">
          <mxGeometry relative="1" as="geometry" />
        </mxCell>
        <mxCell id="8kugYTs8ZW--hJLzOBkt-5" value="Luetaan PDF tiedostot&amp;nbsp;&lt;br&gt;string muuttujaan" style="rounded=1;whiteSpace=wrap;html=1;" parent="1" vertex="1">
          <mxGeometry x="140" y="280" width="140" height="80" as="geometry" />
        </mxCell>
        <mxCell id="8kugYTs8ZW--hJLzOBkt-18" style="edgeStyle=orthogonalEdgeStyle;rounded=0;orthogonalLoop=1;jettySize=auto;html=1;entryX=0;entryY=0.5;entryDx=0;entryDy=0;" parent="1" source="8kugYTs8ZW--hJLzOBkt-6" target="8kugYTs8ZW--hJLzOBkt-7" edge="1">
          <mxGeometry relative="1" as="geometry" />
        </mxCell>
        <mxCell id="8kugYTs8ZW--hJLzOBkt-6" value="Etsitään companycode (Y-tunnus)" style="rounded=1;whiteSpace=wrap;html=1;" parent="1" vertex="1">
          <mxGeometry x="140" y="380" width="140" height="80" as="geometry" />
        </mxCell>
        <mxCell id="8kugYTs8ZW--hJLzOBkt-19" style="edgeStyle=orthogonalEdgeStyle;rounded=0;orthogonalLoop=1;jettySize=auto;html=1;exitX=0.5;exitY=1;exitDx=0;exitDy=0;entryX=0.5;entryY=0;entryDx=0;entryDy=0;" parent="1" source="8kugYTs8ZW--hJLzOBkt-7" target="8kugYTs8ZW--hJLzOBkt-8" edge="1">
          <mxGeometry relative="1" as="geometry" />
        </mxCell>
        <mxCell id="8kugYTs8ZW--hJLzOBkt-7" value="Parsinta companycoden mukaan" style="rhombus;whiteSpace=wrap;html=1;" parent="1" vertex="1">
          <mxGeometry x="330" y="370" width="100" height="100" as="geometry" />
        </mxCell>
        <mxCell id="8kugYTs8ZW--hJLzOBkt-21" style="edgeStyle=orthogonalEdgeStyle;rounded=0;orthogonalLoop=1;jettySize=auto;html=1;exitX=0.5;exitY=1;exitDx=0;exitDy=0;entryX=0.5;entryY=0;entryDx=0;entryDy=0;" parent="1" source="8kugYTs8ZW--hJLzOBkt-8" target="8kugYTs8ZW--hJLzOBkt-9" edge="1">
          <mxGeometry relative="1" as="geometry" />
        </mxCell>
        <mxCell id="2AOorNoscCHdVGtUdLYh-11" style="edgeStyle=orthogonalEdgeStyle;orthogonalLoop=1;jettySize=auto;html=1;exitX=1;exitY=0.5;exitDx=0;exitDy=0;curved=1;endArrow=none;endFill=0;" edge="1" parent="1" source="8kugYTs8ZW--hJLzOBkt-8" target="2AOorNoscCHdVGtUdLYh-8">
          <mxGeometry relative="1" as="geometry" />
        </mxCell>
        <mxCell id="8kugYTs8ZW--hJLzOBkt-8" value="Etsi halutut tiedot" style="rounded=1;whiteSpace=wrap;html=1;" parent="1" vertex="1">
          <mxGeometry x="310" y="490" width="140" height="80" as="geometry" />
        </mxCell>
        <mxCell id="8kugYTs8ZW--hJLzOBkt-22" style="edgeStyle=orthogonalEdgeStyle;rounded=0;orthogonalLoop=1;jettySize=auto;html=1;exitX=0.5;exitY=1;exitDx=0;exitDy=0;entryX=0.5;entryY=0;entryDx=0;entryDy=0;" parent="1" source="8kugYTs8ZW--hJLzOBkt-9" target="8kugYTs8ZW--hJLzOBkt-10" edge="1">
          <mxGeometry relative="1" as="geometry" />
        </mxCell>
        <mxCell id="2AOorNoscCHdVGtUdLYh-17" style="edgeStyle=orthogonalEdgeStyle;orthogonalLoop=1;jettySize=auto;html=1;curved=1;endArrow=none;endFill=0;" edge="1" parent="1" source="8kugYTs8ZW--hJLzOBkt-9" target="2AOorNoscCHdVGtUdLYh-15">
          <mxGeometry relative="1" as="geometry" />
        </mxCell>
        <mxCell id="8kugYTs8ZW--hJLzOBkt-9" value="Etsi rivitason data" style="rounded=1;whiteSpace=wrap;html=1;" parent="1" vertex="1">
          <mxGeometry x="310" y="600" width="140" height="80" as="geometry" />
        </mxCell>
        <mxCell id="2AOorNoscCHdVGtUdLYh-1" style="edgeStyle=orthogonalEdgeStyle;rounded=0;orthogonalLoop=1;jettySize=auto;html=1;entryX=0.5;entryY=0;entryDx=0;entryDy=0;" edge="1" parent="1" source="8kugYTs8ZW--hJLzOBkt-10" target="8kugYTs8ZW--hJLzOBkt-13">
          <mxGeometry relative="1" as="geometry" />
        </mxCell>
        <mxCell id="2AOorNoscCHdVGtUdLYh-16" style="edgeStyle=orthogonalEdgeStyle;orthogonalLoop=1;jettySize=auto;html=1;entryX=0;entryY=0.5;entryDx=0;entryDy=0;entryPerimeter=0;curved=1;endArrow=none;endFill=0;" edge="1" parent="1" source="8kugYTs8ZW--hJLzOBkt-10" target="2AOorNoscCHdVGtUdLYh-13">
          <mxGeometry relative="1" as="geometry" />
        </mxCell>
        <mxCell id="8kugYTs8ZW--hJLzOBkt-10" value="Käsittele rivitason data" style="rounded=1;whiteSpace=wrap;html=1;" parent="1" vertex="1">
          <mxGeometry x="310" y="700" width="140" height="80" as="geometry" />
        </mxCell>
        <mxCell id="8kugYTs8ZW--hJLzOBkt-39" value="Ei" style="edgeStyle=orthogonalEdgeStyle;rounded=0;orthogonalLoop=1;jettySize=auto;html=1;exitX=0.5;exitY=1;exitDx=0;exitDy=0;entryX=0.014;entryY=0.588;entryDx=0;entryDy=0;entryPerimeter=0;" parent="1" source="8kugYTs8ZW--hJLzOBkt-12" target="8kugYTs8ZW--hJLzOBkt-14" edge="1">
          <mxGeometry relative="1" as="geometry">
            <Array as="points">
              <mxPoint x="220" y="1047" />
            </Array>
          </mxGeometry>
        </mxCell>
        <mxCell id="8kugYTs8ZW--hJLzOBkt-40" value="Kyllä" style="edgeStyle=orthogonalEdgeStyle;rounded=0;orthogonalLoop=1;jettySize=auto;html=1;exitX=0;exitY=0.5;exitDx=0;exitDy=0;entryX=-0.007;entryY=0.425;entryDx=0;entryDy=0;entryPerimeter=0;" parent="1" source="8kugYTs8ZW--hJLzOBkt-12" target="8kugYTs8ZW--hJLzOBkt-6" edge="1">
          <mxGeometry relative="1" as="geometry">
            <Array as="points">
              <mxPoint x="80" y="950" />
              <mxPoint x="80" y="414" />
            </Array>
          </mxGeometry>
        </mxCell>
        <mxCell id="8kugYTs8ZW--hJLzOBkt-12" value="Onko lisää laskuja?" style="rhombus;whiteSpace=wrap;html=1;" parent="1" vertex="1">
          <mxGeometry x="170" y="900" width="100" height="100" as="geometry" />
        </mxCell>
        <mxCell id="8kugYTs8ZW--hJLzOBkt-37" value="Kyllä" style="edgeStyle=orthogonalEdgeStyle;rounded=0;orthogonalLoop=1;jettySize=auto;html=1;exitX=0;exitY=0.5;exitDx=0;exitDy=0;entryX=0;entryY=0.5;entryDx=0;entryDy=0;" parent="1" source="8kugYTs8ZW--hJLzOBkt-13" target="8kugYTs8ZW--hJLzOBkt-10" edge="1">
          <mxGeometry relative="1" as="geometry">
            <Array as="points">
              <mxPoint x="260" y="860" />
              <mxPoint x="260" y="740" />
            </Array>
          </mxGeometry>
        </mxCell>
        <mxCell id="8kugYTs8ZW--hJLzOBkt-38" value="EI" style="edgeStyle=orthogonalEdgeStyle;rounded=0;orthogonalLoop=1;jettySize=auto;html=1;exitX=0.5;exitY=1;exitDx=0;exitDy=0;entryX=1;entryY=0.5;entryDx=0;entryDy=0;" parent="1" source="8kugYTs8ZW--hJLzOBkt-13" target="8kugYTs8ZW--hJLzOBkt-12" edge="1">
          <mxGeometry relative="1" as="geometry" />
        </mxCell>
        <mxCell id="8kugYTs8ZW--hJLzOBkt-13" value="Onko lisää&lt;br&gt;&amp;nbsp;rivejä?" style="rhombus;whiteSpace=wrap;html=1;" parent="1" vertex="1">
          <mxGeometry x="330" y="810" width="100" height="100" as="geometry" />
        </mxCell>
        <mxCell id="8kugYTs8ZW--hJLzOBkt-14" value="Tallenna datatable CSV-tiedostoksi" style="rounded=1;whiteSpace=wrap;html=1;" parent="1" vertex="1">
          <mxGeometry x="324" y="1000" width="140" height="80" as="geometry" />
        </mxCell>
        <mxCell id="8kugYTs8ZW--hJLzOBkt-41" value="dt_invoiceHeader&lt;br&gt;dt_InvoiceRow" style="strokeWidth=2;html=1;shape=mxgraph.flowchart.annotation_1;align=left;pointerEvents=1;fillColor=#f8cecc;strokeColor=#b85450;" parent="1" vertex="1">
          <mxGeometry x="364" y="40" width="50" height="100" as="geometry" />
        </mxCell>
        <mxCell id="8kugYTs8ZW--hJLzOBkt-43" value="Switch&lt;br&gt;case: Y-tunnus" style="strokeWidth=2;html=1;shape=mxgraph.flowchart.annotation_1;align=left;pointerEvents=1;fillColor=#ffe6cc;strokeColor=#d79b00;" parent="1" vertex="1">
          <mxGeometry x="464" y="280" width="50" height="100" as="geometry" />
        </mxCell>
        <mxCell id="2AOorNoscCHdVGtUdLYh-5" style="edgeStyle=orthogonalEdgeStyle;orthogonalLoop=1;jettySize=auto;html=1;exitX=0.93;exitY=0.41;exitDx=0;exitDy=0;entryX=-0.06;entryY=0.72;entryDx=0;entryDy=0;entryPerimeter=0;curved=1;strokeColor=default;endArrow=none;endFill=0;exitPerimeter=0;" edge="1" parent="1" source="8kugYTs8ZW--hJLzOBkt-7" target="8kugYTs8ZW--hJLzOBkt-43">
          <mxGeometry relative="1" as="geometry">
            <mxPoint x="430" y="420" as="sourcePoint" />
            <mxPoint x="564" y="380" as="targetPoint" />
          </mxGeometry>
        </mxCell>
        <mxCell id="2AOorNoscCHdVGtUdLYh-6" value="Read PDF text" style="strokeWidth=2;html=1;shape=mxgraph.flowchart.annotation_1;align=left;pointerEvents=1;fillColor=#ffe6cc;strokeColor=#d79b00;" vertex="1" parent="1">
          <mxGeometry x="369" y="250" width="50" height="100" as="geometry" />
        </mxCell>
        <mxCell id="2AOorNoscCHdVGtUdLYh-8" value="﻿DueDate&lt;br&gt;InvoiceNumber&lt;br&gt;CompanyName&lt;br&gt;ReferenceNumber&lt;br&gt;InvoiceDate&lt;br&gt;CompanyCode&lt;br&gt;BankAccountNumber&lt;br&gt;AmountExcVat&lt;br&gt;VatAmount&lt;br&gt;TotalAmount" style="strokeWidth=2;html=1;shape=mxgraph.flowchart.annotation_1;align=left;pointerEvents=1;fillColor=#d5e8d4;strokeColor=#82b366;" vertex="1" parent="1">
          <mxGeometry x="580" y="260" width="60" height="300" as="geometry" />
        </mxCell>
        <mxCell id="2AOorNoscCHdVGtUdLYh-13" value="﻿Discription&lt;br&gt;Quantity&lt;br&gt;Unit&lt;br&gt;UnitPrice&lt;br&gt;VatPercent&lt;br&gt;Vat&lt;br&gt;TotalAmount&lt;br&gt;InvoiceNumber&lt;br&gt;RowNumber" style="strokeWidth=2;html=1;shape=mxgraph.flowchart.annotation_1;align=left;pointerEvents=1;fillColor=#d5e8d4;strokeColor=#82b366;" vertex="1" parent="1">
          <mxGeometry x="580" y="660" width="60" height="305" as="geometry" />
        </mxCell>
        <mxCell id="2AOorNoscCHdVGtUdLYh-15" value="Rivitietojenkohta:&lt;br&gt;Index of&lt;br&gt;Jaa löydetyt rivit:&lt;br&gt;split" style="strokeWidth=2;html=1;shape=mxgraph.flowchart.annotation_1;align=left;pointerEvents=1;fillColor=#ffe6cc;strokeColor=#d79b00;" vertex="1" parent="1">
          <mxGeometry x="500" y="560" width="50" height="100" as="geometry" />
        </mxCell>
      </root>
    </mxGraphModel>
  </diagram>
  <diagram id="Ua_34QhPQrsQ1t4Go3JB" name="RF">
    <mxGraphModel dx="1434" dy="796" grid="1" gridSize="10" guides="1" tooltips="1" connect="1" arrows="1" fold="1" page="1" pageScale="1" pageWidth="850" pageHeight="1100" math="0" shadow="0">
      <root>
        <mxCell id="0" />
        <mxCell id="1" parent="0" />
        <mxCell id="9Pvfn-pVJo45HQ1IfGmR-1" value="RobotFramework prosessi" style="text;html=1;align=center;verticalAlign=middle;resizable=0;points=[];autosize=1;strokeColor=none;fillColor=none;" parent="1" vertex="1">
          <mxGeometry x="10" y="15" width="160" height="30" as="geometry" />
        </mxCell>
        <mxCell id="9Pvfn-pVJo45HQ1IfGmR-2" value="Luodaan lista, johon tulee tietokantaan tulevat rivit" style="rounded=1;whiteSpace=wrap;html=1;" parent="1" vertex="1">
          <mxGeometry x="40" y="60" width="140" height="60" as="geometry" />
        </mxCell>
        <mxCell id="9Pvfn-pVJo45HQ1IfGmR-3" value="Laskunumeroille apumuuttujat" style="rounded=1;whiteSpace=wrap;html=1;" parent="1" vertex="1">
          <mxGeometry x="40" y="160" width="140" height="60" as="geometry" />
        </mxCell>
        <mxCell id="9Pvfn-pVJo45HQ1IfGmR-4" value="Luetaan CSV:stä rivitiedot muuttujaan" style="rounded=1;whiteSpace=wrap;html=1;" parent="1" vertex="1">
          <mxGeometry x="235" y="160" width="140" height="60" as="geometry" />
        </mxCell>
        <mxCell id="9Pvfn-pVJo45HQ1IfGmR-5" value="Splitataan rivitiedot listamuuttujiin" style="rounded=1;whiteSpace=wrap;html=1;" parent="1" vertex="1">
          <mxGeometry x="235" y="260" width="140" height="60" as="geometry" />
        </mxCell>
        <mxCell id="9Pvfn-pVJo45HQ1IfGmR-6" value="Onko laskunumero apumuuttujassa" style="rhombus;whiteSpace=wrap;html=1;" parent="1" vertex="1">
          <mxGeometry x="240" y="360" width="130" height="100" as="geometry" />
        </mxCell>
        <mxCell id="9Pvfn-pVJo45HQ1IfGmR-7" value="Onko tietokantalistassa rivrjä" style="rhombus;whiteSpace=wrap;html=1;" parent="1" vertex="1">
          <mxGeometry x="450" y="360" width="120" height="100" as="geometry" />
        </mxCell>
        <mxCell id="9Pvfn-pVJo45HQ1IfGmR-8" value="Etsiään header CSV:stä laksun otsikkotiedot" style="rounded=1;whiteSpace=wrap;html=1;" parent="1" vertex="1">
          <mxGeometry x="640" y="380" width="140" height="60" as="geometry" />
        </mxCell>
        <mxCell id="9Pvfn-pVJo45HQ1IfGmR-9" value="Verrataan summatiedot" style="rounded=1;whiteSpace=wrap;html=1;" parent="1" vertex="1">
          <mxGeometry x="640" y="470" width="140" height="60" as="geometry" />
        </mxCell>
        <mxCell id="9Pvfn-pVJo45HQ1IfGmR-10" value="Lisää rowdata luotuun tietokantalistsaan" style="rounded=1;whiteSpace=wrap;html=1;" parent="1" vertex="1">
          <mxGeometry x="235" y="510" width="140" height="60" as="geometry" />
        </mxCell>
        <mxCell id="9Pvfn-pVJo45HQ1IfGmR-11" value="Tallenna laskunumero apumuuttujaan" style="rounded=1;whiteSpace=wrap;html=1;" parent="1" vertex="1">
          <mxGeometry x="440" y="510" width="140" height="60" as="geometry" />
        </mxCell>
        <mxCell id="9Pvfn-pVJo45HQ1IfGmR-12" value="Tutki IBAN" style="rounded=1;whiteSpace=wrap;html=1;" parent="1" vertex="1">
          <mxGeometry x="640" y="570" width="140" height="60" as="geometry" />
        </mxCell>
        <mxCell id="9Pvfn-pVJo45HQ1IfGmR-13" value="Tutki viite" style="rounded=1;whiteSpace=wrap;html=1;" parent="1" vertex="1">
          <mxGeometry x="640" y="670" width="140" height="60" as="geometry" />
        </mxCell>
        <mxCell id="9Pvfn-pVJo45HQ1IfGmR-14" value="Aseta liput" style="rounded=1;whiteSpace=wrap;html=1;" parent="1" vertex="1">
          <mxGeometry x="640" y="770" width="140" height="60" as="geometry" />
        </mxCell>
        <mxCell id="9Pvfn-pVJo45HQ1IfGmR-15" value="Onko vielä rivjä" style="rhombus;whiteSpace=wrap;html=1;" parent="1" vertex="1">
          <mxGeometry x="245" y="630" width="120" height="90" as="geometry" />
        </mxCell>
        <mxCell id="9Pvfn-pVJo45HQ1IfGmR-16" value="Tallenna tietokantaan" style="rounded=1;whiteSpace=wrap;html=1;" parent="1" vertex="1">
          <mxGeometry x="640" y="870" width="140" height="60" as="geometry" />
        </mxCell>
        <mxCell id="9Pvfn-pVJo45HQ1IfGmR-17" value="Tyhjennä tietokantalista" style="rounded=1;whiteSpace=wrap;html=1;" parent="1" vertex="1">
          <mxGeometry x="640" y="960" width="140" height="60" as="geometry" />
        </mxCell>
        <mxCell id="9Pvfn-pVJo45HQ1IfGmR-18" value="" style="endArrow=classic;html=1;rounded=0;exitX=0.5;exitY=1;exitDx=0;exitDy=0;entryX=0.5;entryY=0;entryDx=0;entryDy=0;" parent="1" source="9Pvfn-pVJo45HQ1IfGmR-2" target="9Pvfn-pVJo45HQ1IfGmR-3" edge="1">
          <mxGeometry width="50" height="50" relative="1" as="geometry">
            <mxPoint x="400" y="320" as="sourcePoint" />
            <mxPoint x="450" y="270" as="targetPoint" />
            <Array as="points" />
          </mxGeometry>
        </mxCell>
        <mxCell id="9Pvfn-pVJo45HQ1IfGmR-19" value="" style="endArrow=classic;html=1;rounded=0;exitX=1;exitY=0.5;exitDx=0;exitDy=0;" parent="1" source="9Pvfn-pVJo45HQ1IfGmR-3" target="9Pvfn-pVJo45HQ1IfGmR-4" edge="1">
          <mxGeometry width="50" height="50" relative="1" as="geometry">
            <mxPoint x="190" y="180" as="sourcePoint" />
            <mxPoint x="190" y="230" as="targetPoint" />
            <Array as="points" />
          </mxGeometry>
        </mxCell>
        <mxCell id="9Pvfn-pVJo45HQ1IfGmR-25" value="" style="endArrow=classic;html=1;rounded=0;exitX=0.5;exitY=1;exitDx=0;exitDy=0;" parent="1" source="9Pvfn-pVJo45HQ1IfGmR-4" target="9Pvfn-pVJo45HQ1IfGmR-5" edge="1">
          <mxGeometry width="50" height="50" relative="1" as="geometry">
            <mxPoint x="400" y="320" as="sourcePoint" />
            <mxPoint x="450" y="270" as="targetPoint" />
          </mxGeometry>
        </mxCell>
        <mxCell id="9Pvfn-pVJo45HQ1IfGmR-26" value="" style="endArrow=classic;html=1;rounded=0;exitX=0.5;exitY=1;exitDx=0;exitDy=0;entryX=0.5;entryY=0;entryDx=0;entryDy=0;" parent="1" source="9Pvfn-pVJo45HQ1IfGmR-5" target="9Pvfn-pVJo45HQ1IfGmR-6" edge="1">
          <mxGeometry width="50" height="50" relative="1" as="geometry">
            <mxPoint x="400" y="320" as="sourcePoint" />
            <mxPoint x="450" y="270" as="targetPoint" />
          </mxGeometry>
        </mxCell>
        <mxCell id="9Pvfn-pVJo45HQ1IfGmR-27" value="Ei" style="endArrow=classic;html=1;rounded=0;exitX=1;exitY=0.5;exitDx=0;exitDy=0;" parent="1" source="9Pvfn-pVJo45HQ1IfGmR-6" target="9Pvfn-pVJo45HQ1IfGmR-7" edge="1">
          <mxGeometry width="50" height="50" relative="1" as="geometry">
            <mxPoint x="400" y="320" as="sourcePoint" />
            <mxPoint x="450" y="270" as="targetPoint" />
          </mxGeometry>
        </mxCell>
        <mxCell id="9Pvfn-pVJo45HQ1IfGmR-28" value="Kyllä" style="endArrow=classic;html=1;rounded=0;exitX=1;exitY=0.5;exitDx=0;exitDy=0;entryX=0;entryY=0.5;entryDx=0;entryDy=0;" parent="1" source="9Pvfn-pVJo45HQ1IfGmR-7" target="9Pvfn-pVJo45HQ1IfGmR-8" edge="1">
          <mxGeometry width="50" height="50" relative="1" as="geometry">
            <mxPoint x="400" y="320" as="sourcePoint" />
            <mxPoint x="450" y="270" as="targetPoint" />
          </mxGeometry>
        </mxCell>
        <mxCell id="9Pvfn-pVJo45HQ1IfGmR-29" value="" style="endArrow=classic;html=1;rounded=0;entryX=0.5;entryY=0;entryDx=0;entryDy=0;exitX=0.5;exitY=1;exitDx=0;exitDy=0;" parent="1" source="9Pvfn-pVJo45HQ1IfGmR-8" target="9Pvfn-pVJo45HQ1IfGmR-9" edge="1">
          <mxGeometry width="50" height="50" relative="1" as="geometry">
            <mxPoint x="400" y="520" as="sourcePoint" />
            <mxPoint x="450" y="470" as="targetPoint" />
          </mxGeometry>
        </mxCell>
        <mxCell id="9Pvfn-pVJo45HQ1IfGmR-30" value="" style="endArrow=classic;html=1;rounded=0;entryX=0.5;entryY=0;entryDx=0;entryDy=0;exitX=0.5;exitY=1;exitDx=0;exitDy=0;" parent="1" source="9Pvfn-pVJo45HQ1IfGmR-9" target="9Pvfn-pVJo45HQ1IfGmR-12" edge="1">
          <mxGeometry width="50" height="50" relative="1" as="geometry">
            <mxPoint x="400" y="520" as="sourcePoint" />
            <mxPoint x="450" y="470" as="targetPoint" />
          </mxGeometry>
        </mxCell>
        <mxCell id="9Pvfn-pVJo45HQ1IfGmR-31" value="" style="endArrow=classic;html=1;rounded=0;entryX=0.5;entryY=0;entryDx=0;entryDy=0;" parent="1" source="9Pvfn-pVJo45HQ1IfGmR-12" target="9Pvfn-pVJo45HQ1IfGmR-13" edge="1">
          <mxGeometry width="50" height="50" relative="1" as="geometry">
            <mxPoint x="400" y="520" as="sourcePoint" />
            <mxPoint x="450" y="470" as="targetPoint" />
          </mxGeometry>
        </mxCell>
        <mxCell id="9Pvfn-pVJo45HQ1IfGmR-32" value="" style="endArrow=classic;html=1;rounded=0;entryX=0.5;entryY=0;entryDx=0;entryDy=0;exitX=0.5;exitY=1;exitDx=0;exitDy=0;" parent="1" source="9Pvfn-pVJo45HQ1IfGmR-13" target="9Pvfn-pVJo45HQ1IfGmR-14" edge="1">
          <mxGeometry width="50" height="50" relative="1" as="geometry">
            <mxPoint x="400" y="820" as="sourcePoint" />
            <mxPoint x="450" y="770" as="targetPoint" />
          </mxGeometry>
        </mxCell>
        <mxCell id="9Pvfn-pVJo45HQ1IfGmR-33" value="" style="endArrow=classic;html=1;rounded=0;entryX=0.5;entryY=0;entryDx=0;entryDy=0;exitX=0.5;exitY=1;exitDx=0;exitDy=0;" parent="1" source="9Pvfn-pVJo45HQ1IfGmR-14" target="9Pvfn-pVJo45HQ1IfGmR-16" edge="1">
          <mxGeometry width="50" height="50" relative="1" as="geometry">
            <mxPoint x="400" y="820" as="sourcePoint" />
            <mxPoint x="450" y="770" as="targetPoint" />
          </mxGeometry>
        </mxCell>
        <mxCell id="9Pvfn-pVJo45HQ1IfGmR-34" value="" style="endArrow=classic;html=1;rounded=0;entryX=0.5;entryY=0;entryDx=0;entryDy=0;" parent="1" source="9Pvfn-pVJo45HQ1IfGmR-16" target="9Pvfn-pVJo45HQ1IfGmR-17" edge="1">
          <mxGeometry width="50" height="50" relative="1" as="geometry">
            <mxPoint x="400" y="820" as="sourcePoint" />
            <mxPoint x="450" y="770" as="targetPoint" />
          </mxGeometry>
        </mxCell>
        <mxCell id="9Pvfn-pVJo45HQ1IfGmR-35" value="Kyllä" style="endArrow=classic;html=1;rounded=0;exitX=0.5;exitY=1;exitDx=0;exitDy=0;" parent="1" source="9Pvfn-pVJo45HQ1IfGmR-6" target="9Pvfn-pVJo45HQ1IfGmR-10" edge="1">
          <mxGeometry width="50" height="50" relative="1" as="geometry">
            <mxPoint x="400" y="620" as="sourcePoint" />
            <mxPoint x="450" y="570" as="targetPoint" />
          </mxGeometry>
        </mxCell>
        <mxCell id="9Pvfn-pVJo45HQ1IfGmR-36" value="Ei" style="endArrow=classic;html=1;rounded=0;entryX=0.5;entryY=0;entryDx=0;entryDy=0;exitX=0.5;exitY=1;exitDx=0;exitDy=0;" parent="1" source="9Pvfn-pVJo45HQ1IfGmR-7" target="9Pvfn-pVJo45HQ1IfGmR-11" edge="1">
          <mxGeometry width="50" height="50" relative="1" as="geometry">
            <mxPoint x="400" y="620" as="sourcePoint" />
            <mxPoint x="450" y="570" as="targetPoint" />
          </mxGeometry>
        </mxCell>
        <mxCell id="9Pvfn-pVJo45HQ1IfGmR-37" value="" style="endArrow=classic;html=1;rounded=0;entryX=1;entryY=0.5;entryDx=0;entryDy=0;exitX=0;exitY=0.5;exitDx=0;exitDy=0;" parent="1" source="9Pvfn-pVJo45HQ1IfGmR-11" target="9Pvfn-pVJo45HQ1IfGmR-10" edge="1">
          <mxGeometry width="50" height="50" relative="1" as="geometry">
            <mxPoint x="400" y="620" as="sourcePoint" />
            <mxPoint x="450" y="570" as="targetPoint" />
          </mxGeometry>
        </mxCell>
        <mxCell id="9Pvfn-pVJo45HQ1IfGmR-38" value="" style="endArrow=classic;html=1;rounded=0;exitX=0.5;exitY=1;exitDx=0;exitDy=0;entryX=0.5;entryY=0;entryDx=0;entryDy=0;" parent="1" source="9Pvfn-pVJo45HQ1IfGmR-10" target="9Pvfn-pVJo45HQ1IfGmR-15" edge="1">
          <mxGeometry width="50" height="50" relative="1" as="geometry">
            <mxPoint x="400" y="620" as="sourcePoint" />
            <mxPoint x="450" y="570" as="targetPoint" />
          </mxGeometry>
        </mxCell>
        <mxCell id="9Pvfn-pVJo45HQ1IfGmR-39" value="" style="endArrow=classic;html=1;rounded=0;entryX=0.5;entryY=1;entryDx=0;entryDy=0;exitX=0;exitY=0.5;exitDx=0;exitDy=0;" parent="1" source="9Pvfn-pVJo45HQ1IfGmR-17" target="9Pvfn-pVJo45HQ1IfGmR-11" edge="1">
          <mxGeometry width="50" height="50" relative="1" as="geometry">
            <mxPoint x="400" y="620" as="sourcePoint" />
            <mxPoint x="450" y="570" as="targetPoint" />
            <Array as="points">
              <mxPoint x="510" y="990" />
            </Array>
          </mxGeometry>
        </mxCell>
        <mxCell id="9Pvfn-pVJo45HQ1IfGmR-40" value="Siirry seuraavaan&lt;br&gt;laskuun" style="edgeLabel;html=1;align=center;verticalAlign=middle;resizable=0;points=[];" parent="9Pvfn-pVJo45HQ1IfGmR-39" connectable="0" vertex="1">
          <mxGeometry x="0.2851" y="-1" relative="1" as="geometry">
            <mxPoint as="offset" />
          </mxGeometry>
        </mxCell>
        <mxCell id="9Pvfn-pVJo45HQ1IfGmR-41" value="" style="endArrow=classic;html=1;rounded=0;exitX=0.5;exitY=1;exitDx=0;exitDy=0;entryX=1;entryY=0.5;entryDx=0;entryDy=0;" parent="1" source="9Pvfn-pVJo45HQ1IfGmR-15" target="9Pvfn-pVJo45HQ1IfGmR-8" edge="1">
          <mxGeometry width="50" height="50" relative="1" as="geometry">
            <mxPoint x="400" y="820" as="sourcePoint" />
            <mxPoint x="450" y="770" as="targetPoint" />
            <Array as="points">
              <mxPoint x="305" y="1040" />
              <mxPoint x="810" y="1040" />
              <mxPoint x="810" y="410" />
            </Array>
          </mxGeometry>
        </mxCell>
        <mxCell id="9Pvfn-pVJo45HQ1IfGmR-42" value="Ei" style="edgeLabel;html=1;align=center;verticalAlign=middle;resizable=0;points=[];" parent="9Pvfn-pVJo45HQ1IfGmR-41" connectable="0" vertex="1">
          <mxGeometry x="-0.2555" relative="1" as="geometry">
            <mxPoint as="offset" />
          </mxGeometry>
        </mxCell>
        <mxCell id="9Pvfn-pVJo45HQ1IfGmR-43" value="Kyllä" style="endArrow=classic;html=1;rounded=0;exitX=0;exitY=0.5;exitDx=0;exitDy=0;entryX=0;entryY=0.5;entryDx=0;entryDy=0;" parent="1" source="9Pvfn-pVJo45HQ1IfGmR-15" target="9Pvfn-pVJo45HQ1IfGmR-6" edge="1">
          <mxGeometry width="50" height="50" relative="1" as="geometry">
            <mxPoint x="400" y="690" as="sourcePoint" />
            <mxPoint x="450" y="640" as="targetPoint" />
            <Array as="points">
              <mxPoint x="180" y="675" />
              <mxPoint x="180" y="410" />
            </Array>
          </mxGeometry>
        </mxCell>
      </root>
    </mxGraphModel>
  </diagram>
</mxfile>
